<svg width="129" height="129" xmlns="http://www.w3.org/2000/svg"><path fill="none" d="M-1-1h131v131H-1z"/><circle r="64" fill="#334d5c" cy="64.827" cx="64.679"/><path fill="#ebf0f3" d="M81.5 57.5l-6.82-6.84-35.92 33a6.91 6.91 0 109.76 9.76L81.5 57.5z"/><g fill="#e1e6e9"><path d="M39.51 92.64a5.49 5.49 0 01.17-7.93l34.93-32.1 4.93 4.93-32.09 34.94a5.51 5.51 0 01-7.94.16z"/><path d="M93.49 58.78a14.22 14.22 0 11-7-23.93l-6.19 6.18 2.28 8.52 8.52 2.28 6.18-6.19a14.21 14.21 0 01-3.79 13.14zM41.24 40.03l-6.82-4.1-2.71 2.71 4.1 6.82 6.82 4.1.04-.05 13.57 13.57 2.62-2.63L45.3 46.89l.04-.04-4.1-6.82z"/></g><path fill="#d15241" d="M52.716 64.39l7.444-7.445 3.684 3.684-7.445 7.444-3.683-3.683z"/><path fill="#e56353" d="M62.68 58.07l-8.86 8.85a1.27 1.27 0 000 1.79l25.66 25.66a5.26 5.26 0 007.45 0l3.19-3.19a5.26 5.26 0 000-7.45L64.49 58.07a1.26 1.26 0 00-1.81 0z"/><path fill="#d15241" d="M58.43 67.05a1.23 1.23 0 000 1.74L80.3 90.67a1.24 1.24 0 001.75-1.75L60.18 67.05a1.23 1.23 0 00-1.75 0zm4.4-4.4a1.23 1.23 0 000 1.74l21.85 21.88a1.24 1.24 0 001.75-1.75L64.57 62.65a1.23 1.23 0 00-1.74 0z"/></svg>