<svg xmlns="http://www.w3.org/2000/svg" viewBox="0 0 512 512"><path d="M403.642 505.603c-52.771 0-95.704-42.933-95.704-95.704s42.932-95.703 95.704-95.703 95.703 42.932 95.703 95.703-42.933 95.704-95.703 95.704zm0-176.334c-44.46 0-80.63 36.171-80.63 80.629 0 44.46 36.171 80.631 80.63 80.631s80.629-36.171 80.629-80.631c0-44.458-36.17-80.629-80.629-80.629z" fill="#e64b55"/><path d="M403.642 321.732c48.693 0 88.166 39.474 88.166 88.166s-39.474 88.167-88.166 88.167-88.166-39.474-88.166-88.167 39.473-88.166 88.166-88.166m0-13.933c-56.298 0-102.101 45.802-102.101 102.101S347.344 512 403.642 512s102.101-45.802 102.101-102.1c-.001-56.299-45.803-102.101-102.101-102.101z" fill="#50555a"/><path d="M403.642 307.799c-.152 0-.302.005-.453.006v13.934c.152-.001.301-.006.453-.006 48.693 0 88.167 39.474 88.167 88.166s-39.474 88.167-88.167 88.167c-.152 0-.302-.005-.453-.006v13.934c.152.001.301.006.453.006 56.298 0 102.101-45.802 102.101-102.101 0-56.298-45.803-102.1-102.101-102.1z" fill="#373c41"/><path d="M403.642 385.487c-13.461 0-24.413 10.951-24.413 24.412 0 13.461 10.951 24.413 24.413 24.413s24.413-10.951 24.413-24.413c-.001-13.461-10.953-24.412-24.413-24.412z" fill="#b9b9be"/><path d="M403.642 385.487c-13.461 0-24.413 10.951-24.413 24.412 0 13.461 10.951 24.413 24.413 24.413s24.413-10.951 24.413-24.413c-.001-13.461-10.953-24.412-24.413-24.412z" fill="#b9b9be"/><path d="M108.358 505.603c-52.771 0-95.703-42.933-95.703-95.704s42.932-95.703 95.703-95.703 95.703 42.932 95.703 95.703-42.932 95.704-95.703 95.704zm0-176.334c-44.46 0-80.629 36.171-80.629 80.629 0 44.46 36.171 80.631 80.629 80.631s80.629-36.171 80.629-80.631c.001-44.458-36.169-80.629-80.629-80.629z" fill="#e64b55"/><path d="M108.358 321.732c48.693 0 88.166 39.474 88.166 88.166s-39.474 88.167-88.166 88.167-88.166-39.474-88.166-88.167 39.474-88.166 88.166-88.166m0-13.933c-56.298 0-102.1 45.802-102.1 102.101S52.06 512 108.358 512s102.101-45.802 102.101-102.1c0-56.299-45.802-102.101-102.101-102.101z" fill="#50555a"/><path d="M108.358 307.799c-.152 0-.302.005-.453.006v13.934c.152-.001.301-.006.453-.006 48.693 0 88.167 39.474 88.167 88.166s-39.474 88.167-88.167 88.167c-.152 0-.302-.005-.453-.006v13.934c.152.001.301.006.453.006 56.298 0 102.101-45.802 102.101-102.101 0-56.298-45.802-102.1-102.101-102.1z" fill="#373c41"/><path d="M108.358 385.487c-13.461 0-24.413 10.951-24.413 24.412 0 13.461 10.951 24.413 24.413 24.413s24.413-10.951 24.413-24.413c0-13.461-10.951-24.412-24.413-24.412z" fill="#b9b9be"/><path d="M213.17 408.405c-4.527 0-8.822-2.68-10.664-7.123l-61.489-148.278c-2.442-5.888.352-12.638 6.239-15.08 5.888-2.441 12.638.352 15.08 6.239l61.489 148.278c2.442 5.888-.352 12.638-6.239 15.08a11.48 11.48 0 01-4.416.884z" fill="#46738c"/><path d="M213.162 408.402c-2.779 0-5.568-.998-7.781-3.021-4.705-4.299-5.033-11.599-.735-16.303l112.458-123.067-162.11 13.38-55.775 105.932h56.047c6.373 0 11.54 5.166 11.54 11.54 0 6.373-5.166 11.54-11.54 11.54H80.101a11.542 11.542 0 01-10.211-16.917l67.634-128.451a11.543 11.543 0 019.261-6.125l197.722-16.32a11.54 11.54 0 019.468 19.285L221.684 404.647a11.51 11.51 0 01-8.522 3.755z" fill="#55879b"/><path d="M188.579 261.141h-76.205c-9.688 0-17.542-7.854-17.542-17.542s7.854-17.542 17.542-17.542h76.205c9.688 0 17.542 7.854 17.542 17.542 0 9.688-7.854 17.542-17.542 17.542z" fill="#b9cdd2"/><path d="M394.108 408.406c-4.836 0-9.341-3.064-10.949-7.905l-67.329-202.66a11.54 11.54 0 018.601-14.937l52.122-10.844c6.242-1.296 12.351 2.708 13.649 8.947 1.297 6.239-2.708 12.35-8.947 13.648l-39.436 8.205 63.243 190.362c2.01 6.048-1.264 12.58-7.313 14.59a11.483 11.483 0 01-3.641.594z" fill="#46738c"/><path d="M204.411 420.413c-13.006-4.834-19.63-19.298-14.795-32.304l38.573-103.765-76.937-50.823c-11.578-7.648-14.764-23.234-7.116-34.811 7.647-11.578 23.235-14.764 34.811-7.116l93.594 61.827c9.753 6.442 13.775 18.761 9.702 29.718l-45.53 122.479c-4.832 13.003-19.297 19.631-32.302 14.795z" fill="#ffb69e"/><path d="M297.818 115.767l-37.286-39.623a31.218 31.218 0 00-45.49.024l-89.445 95.249a33.045 33.045 0 006.238 50.428l61.711 39.613.001-.001 21.636 14.292 36.466-36.133-21.541-14.229 66.902-66.003c12.067-11.907 12.427-31.27.808-43.617z" fill="#3c5064"/><path d="M117.112 188.472a33.037 33.037 0 018.484-17.055l89.445-95.249a31.219 31.219 0 0145.49-.024l37.286 39.623c11.618 12.347 11.259 31.709-.81 43.616l-66.902 66.003-112.993-36.914z" fill="#ffa50a"/><circle cx="332.454" cy="51.661" r="46.212" fill="#ffb69e"/><path d="M261.113 6.973c4.006-11.181 26.434-3.807 51.852-6.118 39.148-3.559 58.518 3.806 71.934 25.518 5.155 8.343 4.142 19.606 2.364 29.476a6.01 6.01 0 01-7.995 4.573C317.962 37.875 252.803 30.165 261.113 6.973z" fill="#fa503c"/><path d="M289.045 194.044a20.935 20.935 0 01-14.861-9.512l-54.726-86.035c-6.206-9.757-3.328-22.697 6.429-28.903 9.757-6.205 22.697-3.328 28.903 6.429l48.701 76.564 72.409 1.448c11.567.235 20.747 9.791 20.515 21.352-.231 11.56-9.791 20.745-21.352 20.514l-83.631-1.672a21.18 21.18 0 01-2.387-.185z" fill="#ffb69e"/><path d="M246.592 141.156l34.722-23.434-26.524-41.699c-6.205-9.756-19.146-12.634-28.903-6.429-9.757 6.206-12.635 19.146-6.429 28.903l27.134 42.659z" fill="#fa870a"/></svg>