<svg xmlns="http://www.w3.org/2000/svg" viewBox="0 0 1600 900"><path fill="#ffd369" d="M957 450L539 900h857z"/><path fill="#c3a150" d="M957 450l-84.1 450H1396z"/><path fill="#f3c964" d="M-60 900l458-238 418 238z"/><path fill="#bb9b4d" d="M337 900l61-238 418 238z"/><path fill="#e6bf5f" d="M1203 546l349 354H876z"/><path fill="#b4944a" d="M1203 546l349 354h-390z"/><path fill="#dab55a" d="M641 695l245 205H367z"/><path fill="#ac8e46" d="M587 900l54-205 245 205z"/><path fill="#ceab55" d="M1710 900l-309-268-305 268z"/><path fill="#a48843" d="M1710 900l-309-268-36 268z"/><path fill="#c2a150" d="M1210 900L971 687 725 900z"/><path fill="#9d8240" d="M943 900h267L971 687z"/></svg>