<svg height="512" viewBox="0 0 150 150" width="512" xmlns="http://www.w3.org/2000/svg" data-name="Layer 1"><circle cx="75" cy="75" fill="#334d5c" r="64"/><path d="M91.82 67.29L85 60.45l-35.92 33a6.91 6.91 0 109.76 9.76z" fill="#ebf0f3"/><g fill="#e1e6e9"><path d="M49.83 102.43A5.49 5.49 0 0150 94.5l34.93-32.1 4.93 4.93-32.09 34.94a5.51 5.51 0 01-7.94.16z"/><path d="M103.81 68.57a14.22 14.22 0 11-7-23.93l-6.19 6.18 2.28 8.52 8.52 2.28 6.18-6.19a14.21 14.21 0 01-3.79 13.14zM51.56 49.82l-6.82-4.1-2.71 2.71 4.1 6.82 6.82 4.1.04-.05 13.57 13.57 2.62-2.63-13.56-13.56.04-.04z"/></g><path d="M63.036 74.18l7.445-7.445 3.684 3.683-7.445 7.445z" fill="#d15241"/><path d="M73 67.86l-8.86 8.85a1.27 1.27 0 000 1.79l25.66 25.66a5.26 5.26 0 007.45 0l3.19-3.19a5.26 5.26 0 000-7.45L74.81 67.86a1.26 1.26 0 00-1.81 0z" fill="#e56353"/><path d="M68.75 76.84a1.23 1.23 0 000 1.74l21.87 21.88a1.24 1.24 0 001.75-1.75L70.5 76.84a1.23 1.23 0 00-1.75 0zm4.4-4.4a1.23 1.23 0 000 1.74L95 96.06a1.24 1.24 0 001.75-1.75L74.89 72.44a1.23 1.23 0 00-1.74 0z" fill="#d15241"/></svg>