<svg height="512" width="512" xmlns="http://www.w3.org/2000/svg"><path d="M222.923 509.883C97.163 493.659 0 386.176 0 256 0 114.615 114.615 0 256 0s256 114.615 256 256c0 130.176-97.163 237.659-222.923 253.883z" fill="#80dbff"/><path d="M289.2 509.867C414.9 493.589 512 386.134 512 256c0-28.345-4.607-55.614-13.112-81.099L400.987 77 111.013 404.542l104.232 104.232c2.523.404 5.058.77 7.605 1.1z" fill="#4ab8f7"/><path d="M222.923 509.882A258.41 258.41 0 00256 512c11.208 0 22.249-.721 33.077-2.118V322.415h-66.155v187.467z" fill="#707789"/><path d="M289.077 322.415H256.12v189.584a258.398 258.398 0 0032.957-2.117z" fill="#555a66"/><path d="M111.013 77h289.973v327.542H111.013z" fill="#7584f2"/><path d="M256.12 77h144.866v327.542H256.12z" fill="#606aea"/><path d="M261.075 215.877v-30h-31.311v-20.525h-48.833v30h29.762l-12.928 26.413a55.803 55.803 0 00-11.919-1.281c-30.78 0-55.822 25.042-55.822 55.822s25.042 55.822 55.822 55.822 55.822-25.042 55.822-55.822c0-15.906-6.687-30.279-17.397-40.456l9.776-19.974h27.028zm-49.407 60.43c0 14.238-11.584 25.822-25.822 25.822s-25.822-11.583-25.822-25.822c0-13.503 10.418-24.618 23.639-25.73l-9.366 19.136 26.945 13.188 8.276-16.909a25.672 25.672 0 012.15 10.315z" fill="#fff"/><path d="M328.114 220.519l-19.372-89.375h-46.31v30h22.211l5.462 24.733H256.12v30h40.419l2.397 11.703c-17.055 9.564-28.606 27.822-28.606 48.727 0 30.78 25.042 55.822 55.822 55.822s55.822-25.042 55.822-55.822c.002-30.125-23.984-54.752-53.86-55.788zm-1.96 81.609c-14.238 0-25.822-11.583-25.822-25.822a25.697 25.697 0 015.363-15.738l3.841 18.748 29.39-6.021-4.387-21.415c10.135 3.489 17.437 13.12 17.437 24.425 0 14.24-11.584 25.823-25.822 25.823z" fill="#e9edf5"/></svg>